<?xml version="1.0" encoding="UTF-8" standalone="no" ?>
<!DOCTYPE svg PUBLIC "-//W3C//DTD SVG 1.1//EN" "http://www.w3.org/Graphics/SVG/1.1/DTD/svg11.dtd">
<svg xmlns="http://www.w3.org/2000/svg" 
<!-- 
xmlns:xlink="http://www.w3.org/1999/xlink" version="1.1" width="16" height="16"  -->
viewBox="0 0 16 16" xml:space="preserve">
<desc>Created with Fabric.js 4.2.0</desc>
<defs>
</defs>
<g transform="matrix(0 0 0 0 0 0)" id="be9bb34a-9399-4eba-92b5-43cb21338491"  >
</g>
<g transform="matrix(1 0 0 1 540 540)" id="25d0e3b1-4873-4dfb-b094-ddf1ceea2040"  >
<rect style="stroke: none; stroke-width: 1; stroke-dasharray: none; stroke-linecap: butt; stroke-dashoffset: 0; stroke-linejoin: miter; stroke-miterlimit: 4; fill: rgb(255,255,255); fill-opacity: 0; fill-rule: nonzero; opacity: 1;" vector-effect="non-scaling-stroke"  x="-540" y="-540" rx="0" ry="0" width="1080" height="1080" />
</g>
<g transform="matrix(1 0 0 1 540 540)"  >
<g style="" vector-effect="non-scaling-stroke"   >
		<g transform="matrix(4.01 0 0 4.01 0 0)"  >
<path style="stroke: none; stroke-width: 1; stroke-dasharray: none; stroke-linecap: butt; stroke-dashoffset: 0; stroke-linejoin: miter; stroke-miterlimit: 4; fill: rgb(0,149,255); fill-rule: nonzero; opacity: 1;" vector-effect="non-scaling-stroke"  transform=" translate(-16, -11.5)" d="M 4.19672 0 C 0.839344 0 0 5.11111 0 7.66667 L 0 15.3333 C 0 17.8889 0.839344 23 4.19672 23 L 27.8033 23 C 31.1607 23 32 17.8889 32 15.3333 L 32 7.66667 C 32 5.11111 31.1607 0 27.8033 0 L 4.19672 0 Z" stroke-linecap="round" />
</g>
		<g transform="matrix(4.01 0 0 4.01 5.02 0.01)"  >
<path style="stroke: none; stroke-width: 1; stroke-dasharray: none; stroke-linecap: butt; stroke-dashoffset: 0; stroke-linejoin: miter; stroke-miterlimit: 4; fill: rgb(255,255,255); fill-rule: nonzero; opacity: 1;" vector-effect="non-scaling-stroke"  transform=" translate(-17.25, -11.5)" d="M 22.5 11.5 L 12 16.6962 L 12 6.30386 L 22.5 11.5 Z" stroke-linecap="round" />
</g>
</g>
</g>
</svg>